<?xml version="1.0" encoding="UTF-8"?> <svg xmlns="http://www.w3.org/2000/svg" viewBox="0 0 32 32"><path d="M4.2 13.4L8 11.2 11.7 9l4.2 2.4 2.1-1.2L20.3 9l7.6 4.4c1.2.7 2.1 1.9 2.4 3.1s.2 2.6-.4 3.7c-.1.1-.1.2-.2.3-.7 1.1-1.8 1.9-3 2.2-1.3.3-2.7.2-3.9-.5l-3.3-1.9-3.5-1.8-6.6 3.8c-1.2.7-2.6.9-3.9.5-1.2-.3-2.3-1.1-3-2.3-.1-.1-.1-.2-.2-.3-.6-1.2-.7-2.5-.4-3.7.2-1.3 1.1-2.4 2.3-3.1zm7.5-2.3l-6.6 3.8c-.8.5-1.3 1.2-1.6 2.1-.2.8-.1 1.6.2 2.4.1.1.1.2.2.3.5.7 1.2 1.2 2 1.4s1.8.1 2.6-.3L20.3 14l5.4 3.2c.2.1.4.3.4.5.1.2 0 .5-.1.7s-.3.4-.5.4c-.2.1-.5 0-.7-.1l-2.3-1.3-2.2-1.4-1.3.7-1.2.7 5.8 3.4c.8.5 1.7.6 2.6.3.8-.2 1.5-.7 1.9-1.4.1-.1.1-.2.2-.4.4-.8.5-1.6.2-2.4-.2-.8-.8-1.6-1.6-2.1L23.6 13l-3.3-1.9-13 7.6c-.2.1-.5.1-.7.1-.2-.1-.4-.2-.5-.4s-.1-.5-.1-.7c.1-.2.2-.4.4-.5l7.8-4.6-1.2-.8-1.3-.7z" fill="#2a2268"></path></svg> 